<mxfile host="app.diagrams.net" modified="2021-06-03T06:39:12.790Z" agent="5.0 (Macintosh; Intel Mac OS X 10_15_0) AppleWebKit/537.36 (KHTML, like Gecko) Chrome/90.0.4430.85 Safari/537.36" etag="toOBzNQLBf4Jp2mRb2dD" version="14.7.3" type="github">
  <diagram id="m0g-g9wPMmYrWa9y2Zuf" name="第 1 页">
    <mxGraphModel dx="1426" dy="793" grid="1" gridSize="10" guides="1" tooltips="1" connect="1" arrows="1" fold="1" page="1" pageScale="1" pageWidth="827" pageHeight="1169" background="#ffffff" math="0" shadow="0">
      <root>
        <mxCell id="0" />
        <mxCell id="1" parent="0" />
        <mxCell id="-0Fh-GqZwzhgzKdKGxgy-1" value="CLIENT/SERVICE" style="rounded=1;whiteSpace=wrap;html=1;" vertex="1" parent="1">
          <mxGeometry x="90" y="250" width="120" height="60" as="geometry" />
        </mxCell>
        <mxCell id="-0Fh-GqZwzhgzKdKGxgy-2" value="APISIX" style="rounded=1;whiteSpace=wrap;html=1;" vertex="1" parent="1">
          <mxGeometry x="90" y="430" width="120" height="60" as="geometry" />
        </mxCell>
        <mxCell id="-0Fh-GqZwzhgzKdKGxgy-3" value="上游" style="ellipse;whiteSpace=wrap;html=1;aspect=fixed;" vertex="1" parent="1">
          <mxGeometry x="30" y="650" width="40" height="40" as="geometry" />
        </mxCell>
        <mxCell id="-0Fh-GqZwzhgzKdKGxgy-4" value="上游" style="ellipse;whiteSpace=wrap;html=1;aspect=fixed;" vertex="1" parent="1">
          <mxGeometry x="130" y="650" width="40" height="40" as="geometry" />
        </mxCell>
        <mxCell id="-0Fh-GqZwzhgzKdKGxgy-5" value="上游" style="ellipse;whiteSpace=wrap;html=1;aspect=fixed;" vertex="1" parent="1">
          <mxGeometry x="230" y="650" width="40" height="40" as="geometry" />
        </mxCell>
        <mxCell id="-0Fh-GqZwzhgzKdKGxgy-6" value="" style="shape=curlyBracket;whiteSpace=wrap;html=1;rounded=1;" vertex="1" parent="1">
          <mxGeometry x="300" y="250" width="20" height="420" as="geometry" />
        </mxCell>
        <mxCell id="-0Fh-GqZwzhgzKdKGxgy-7" value="" style="rounded=1;whiteSpace=wrap;html=1;" vertex="1" parent="1">
          <mxGeometry x="340" y="270" width="140" height="160" as="geometry" />
        </mxCell>
        <mxCell id="-0Fh-GqZwzhgzKdKGxgy-8" value="&lt;b&gt;&lt;font style=&quot;font-size: 14px&quot;&gt;全平台&lt;/font&gt;&lt;/b&gt;" style="text;html=1;strokeColor=none;fillColor=none;align=center;verticalAlign=middle;whiteSpace=wrap;rounded=0;" vertex="1" parent="1">
          <mxGeometry x="349" y="280" width="60" height="20" as="geometry" />
        </mxCell>
        <mxCell id="-0Fh-GqZwzhgzKdKGxgy-11" value="OpenResty" style="rounded=1;whiteSpace=wrap;html=1;" vertex="1" parent="1">
          <mxGeometry x="349" y="350" width="60" height="30" as="geometry" />
        </mxCell>
        <mxCell id="-0Fh-GqZwzhgzKdKGxgy-12" value="Tengine" style="rounded=1;whiteSpace=wrap;html=1;" vertex="1" parent="1">
          <mxGeometry x="413" y="350" width="60" height="30" as="geometry" />
        </mxCell>
        <mxCell id="-0Fh-GqZwzhgzKdKGxgy-14" value="裸机" style="rounded=1;whiteSpace=wrap;html=1;" vertex="1" parent="1">
          <mxGeometry x="349" y="310" width="60" height="30" as="geometry" />
        </mxCell>
        <mxCell id="-0Fh-GqZwzhgzKdKGxgy-15" value="k8s" style="rounded=1;whiteSpace=wrap;html=1;" vertex="1" parent="1">
          <mxGeometry x="413" y="310" width="60" height="30" as="geometry" />
        </mxCell>
        <mxCell id="-0Fh-GqZwzhgzKdKGxgy-16" value="ARM64" style="rounded=1;whiteSpace=wrap;html=1;" vertex="1" parent="1">
          <mxGeometry x="349" y="390" width="60" height="30" as="geometry" />
        </mxCell>
        <mxCell id="-0Fh-GqZwzhgzKdKGxgy-17" value="AMD64" style="rounded=1;whiteSpace=wrap;html=1;" vertex="1" parent="1">
          <mxGeometry x="413" y="390" width="60" height="30" as="geometry" />
        </mxCell>
        <mxCell id="-0Fh-GqZwzhgzKdKGxgy-18" value="" style="rounded=1;whiteSpace=wrap;html=1;" vertex="1" parent="1">
          <mxGeometry x="510" y="270" width="140" height="160" as="geometry" />
        </mxCell>
        <mxCell id="-0Fh-GqZwzhgzKdKGxgy-19" value="&lt;span style=&quot;font-size: 14px&quot;&gt;&lt;b&gt;多协议&lt;/b&gt;&lt;/span&gt;" style="text;html=1;strokeColor=none;fillColor=none;align=center;verticalAlign=middle;whiteSpace=wrap;rounded=0;" vertex="1" parent="1">
          <mxGeometry x="519" y="280" width="60" height="20" as="geometry" />
        </mxCell>
        <mxCell id="-0Fh-GqZwzhgzKdKGxgy-20" value="gRPC" style="rounded=1;whiteSpace=wrap;html=1;" vertex="1" parent="1">
          <mxGeometry x="519" y="350" width="60" height="30" as="geometry" />
        </mxCell>
        <mxCell id="-0Fh-GqZwzhgzKdKGxgy-21" value="Websocket" style="rounded=1;whiteSpace=wrap;html=1;" vertex="1" parent="1">
          <mxGeometry x="583" y="350" width="60" height="30" as="geometry" />
        </mxCell>
        <mxCell id="-0Fh-GqZwzhgzKdKGxgy-22" value="TCP/UDP" style="rounded=1;whiteSpace=wrap;html=1;" vertex="1" parent="1">
          <mxGeometry x="519" y="310" width="60" height="30" as="geometry" />
        </mxCell>
        <mxCell id="-0Fh-GqZwzhgzKdKGxgy-23" value="HTTP(S)" style="rounded=1;whiteSpace=wrap;html=1;" vertex="1" parent="1">
          <mxGeometry x="583" y="310" width="60" height="30" as="geometry" />
        </mxCell>
        <mxCell id="-0Fh-GqZwzhgzKdKGxgy-24" value="Dubbo" style="rounded=1;whiteSpace=wrap;html=1;" vertex="1" parent="1">
          <mxGeometry x="519" y="390" width="60" height="30" as="geometry" />
        </mxCell>
        <mxCell id="-0Fh-GqZwzhgzKdKGxgy-25" value="MQTT" style="rounded=1;whiteSpace=wrap;html=1;" vertex="1" parent="1">
          <mxGeometry x="583" y="390" width="60" height="30" as="geometry" />
        </mxCell>
        <mxCell id="-0Fh-GqZwzhgzKdKGxgy-26" value="" style="rounded=1;whiteSpace=wrap;html=1;" vertex="1" parent="1">
          <mxGeometry x="340" y="450" width="140" height="200" as="geometry" />
        </mxCell>
        <mxCell id="-0Fh-GqZwzhgzKdKGxgy-27" value="&lt;span style=&quot;font-size: 14px&quot;&gt;&lt;b&gt;全动态能力&lt;/b&gt;&lt;/span&gt;" style="text;html=1;strokeColor=none;fillColor=none;align=center;verticalAlign=middle;whiteSpace=wrap;rounded=0;" vertex="1" parent="1">
          <mxGeometry x="349" y="460" width="81" height="20" as="geometry" />
        </mxCell>
        <mxCell id="-0Fh-GqZwzhgzKdKGxgy-28" value="内容重写" style="rounded=1;whiteSpace=wrap;html=1;" vertex="1" parent="1">
          <mxGeometry x="349" y="530" width="60" height="30" as="geometry" />
        </mxCell>
        <mxCell id="-0Fh-GqZwzhgzKdKGxgy-29" value="负载均衡" style="rounded=1;whiteSpace=wrap;html=1;" vertex="1" parent="1">
          <mxGeometry x="413" y="530" width="60" height="30" as="geometry" />
        </mxCell>
        <mxCell id="-0Fh-GqZwzhgzKdKGxgy-30" value="热加载" style="rounded=1;whiteSpace=wrap;html=1;" vertex="1" parent="1">
          <mxGeometry x="349" y="490" width="60" height="30" as="geometry" />
        </mxCell>
        <mxCell id="-0Fh-GqZwzhgzKdKGxgy-31" value="请求重写" style="rounded=1;whiteSpace=wrap;html=1;" vertex="1" parent="1">
          <mxGeometry x="413" y="490" width="60" height="30" as="geometry" />
        </mxCell>
        <mxCell id="-0Fh-GqZwzhgzKdKGxgy-32" value="健康检查" style="rounded=1;whiteSpace=wrap;html=1;" vertex="1" parent="1">
          <mxGeometry x="349" y="570" width="60" height="30" as="geometry" />
        </mxCell>
        <mxCell id="-0Fh-GqZwzhgzKdKGxgy-33" value="熔断" style="rounded=1;whiteSpace=wrap;html=1;" vertex="1" parent="1">
          <mxGeometry x="413" y="570" width="60" height="30" as="geometry" />
        </mxCell>
        <mxCell id="-0Fh-GqZwzhgzKdKGxgy-34" value="代理镜像" style="rounded=1;whiteSpace=wrap;html=1;" vertex="1" parent="1">
          <mxGeometry x="348" y="610" width="60" height="30" as="geometry" />
        </mxCell>
        <mxCell id="-0Fh-GqZwzhgzKdKGxgy-35" value="Serverless" style="rounded=1;whiteSpace=wrap;html=1;" vertex="1" parent="1">
          <mxGeometry x="412" y="610" width="60" height="30" as="geometry" />
        </mxCell>
        <mxCell id="-0Fh-GqZwzhgzKdKGxgy-36" value="" style="rounded=1;whiteSpace=wrap;html=1;" vertex="1" parent="1">
          <mxGeometry x="510" y="450" width="140" height="200" as="geometry" />
        </mxCell>
        <mxCell id="-0Fh-GqZwzhgzKdKGxgy-37" value="&lt;span style=&quot;font-size: 14px&quot;&gt;&lt;b&gt;精细化路由&lt;/b&gt;&lt;/span&gt;" style="text;html=1;strokeColor=none;fillColor=none;align=center;verticalAlign=middle;whiteSpace=wrap;rounded=0;" vertex="1" parent="1">
          <mxGeometry x="519" y="460" width="81" height="20" as="geometry" />
        </mxCell>
        <mxCell id="-0Fh-GqZwzhgzKdKGxgy-38" value="Nginx变量" style="rounded=1;whiteSpace=wrap;html=1;" vertex="1" parent="1">
          <mxGeometry x="519" y="530" width="60" height="30" as="geometry" />
        </mxCell>
        <mxCell id="-0Fh-GqZwzhgzKdKGxgy-39" value="逻辑变量" style="rounded=1;whiteSpace=wrap;html=1;" vertex="1" parent="1">
          <mxGeometry x="583" y="530" width="60" height="30" as="geometry" />
        </mxCell>
        <mxCell id="-0Fh-GqZwzhgzKdKGxgy-40" value="路径匹配" style="rounded=1;whiteSpace=wrap;html=1;" vertex="1" parent="1">
          <mxGeometry x="519" y="490" width="60" height="30" as="geometry" />
        </mxCell>
        <mxCell id="-0Fh-GqZwzhgzKdKGxgy-41" value="前缀匹配" style="rounded=1;whiteSpace=wrap;html=1;" vertex="1" parent="1">
          <mxGeometry x="583" y="490" width="60" height="30" as="geometry" />
        </mxCell>
        <mxCell id="-0Fh-GqZwzhgzKdKGxgy-42" value="函数定制" style="rounded=1;whiteSpace=wrap;html=1;" vertex="1" parent="1">
          <mxGeometry x="519" y="570" width="60" height="30" as="geometry" />
        </mxCell>
        <mxCell id="-0Fh-GqZwzhgzKdKGxgy-43" value="IPv6/TTL" style="rounded=1;whiteSpace=wrap;html=1;" vertex="1" parent="1">
          <mxGeometry x="583" y="570" width="60" height="30" as="geometry" />
        </mxCell>
        <mxCell id="-0Fh-GqZwzhgzKdKGxgy-44" value="路由优先级" style="rounded=1;whiteSpace=wrap;html=1;" vertex="1" parent="1">
          <mxGeometry x="518" y="610" width="60" height="30" as="geometry" />
        </mxCell>
        <mxCell id="-0Fh-GqZwzhgzKdKGxgy-45" value="批量HTTP" style="rounded=1;whiteSpace=wrap;html=1;" vertex="1" parent="1">
          <mxGeometry x="582" y="610" width="60" height="30" as="geometry" />
        </mxCell>
        <mxCell id="-0Fh-GqZwzhgzKdKGxgy-46" value="" style="rounded=1;whiteSpace=wrap;html=1;" vertex="1" parent="1">
          <mxGeometry x="680" y="450" width="140" height="200" as="geometry" />
        </mxCell>
        <mxCell id="-0Fh-GqZwzhgzKdKGxgy-47" value="&lt;span style=&quot;font-size: 14px&quot;&gt;&lt;b&gt;安全防护&lt;/b&gt;&lt;/span&gt;" style="text;html=1;strokeColor=none;fillColor=none;align=center;verticalAlign=middle;whiteSpace=wrap;rounded=0;" vertex="1" parent="1">
          <mxGeometry x="685" y="460" width="65" height="20" as="geometry" />
        </mxCell>
        <mxCell id="-0Fh-GqZwzhgzKdKGxgy-48" value="限流策略" style="rounded=1;whiteSpace=wrap;html=1;" vertex="1" parent="1">
          <mxGeometry x="689" y="530" width="60" height="30" as="geometry" />
        </mxCell>
        <mxCell id="-0Fh-GqZwzhgzKdKGxgy-49" value="ReDoS" style="rounded=1;whiteSpace=wrap;html=1;" vertex="1" parent="1">
          <mxGeometry x="753" y="530" width="60" height="30" as="geometry" />
        </mxCell>
        <mxCell id="-0Fh-GqZwzhgzKdKGxgy-50" value="身份认证" style="rounded=1;whiteSpace=wrap;html=1;" vertex="1" parent="1">
          <mxGeometry x="689" y="490" width="60" height="30" as="geometry" />
        </mxCell>
        <mxCell id="-0Fh-GqZwzhgzKdKGxgy-51" value="黑白名单" style="rounded=1;whiteSpace=wrap;html=1;" vertex="1" parent="1">
          <mxGeometry x="753" y="490" width="60" height="30" as="geometry" />
        </mxCell>
        <mxCell id="-0Fh-GqZwzhgzKdKGxgy-52" value="CORS" style="rounded=1;whiteSpace=wrap;html=1;" vertex="1" parent="1">
          <mxGeometry x="689" y="570" width="60" height="30" as="geometry" />
        </mxCell>
        <mxCell id="-0Fh-GqZwzhgzKdKGxgy-53" value="IPv6/TTL" style="rounded=1;whiteSpace=wrap;html=1;" vertex="1" parent="1">
          <mxGeometry x="753" y="570" width="60" height="30" as="geometry" />
        </mxCell>
        <mxCell id="-0Fh-GqZwzhgzKdKGxgy-54" value="路由优先级" style="rounded=1;whiteSpace=wrap;html=1;" vertex="1" parent="1">
          <mxGeometry x="688" y="610" width="60" height="30" as="geometry" />
        </mxCell>
        <mxCell id="-0Fh-GqZwzhgzKdKGxgy-55" value="请求验证" style="rounded=1;whiteSpace=wrap;html=1;" vertex="1" parent="1">
          <mxGeometry x="752" y="610" width="60" height="30" as="geometry" />
        </mxCell>
        <mxCell id="-0Fh-GqZwzhgzKdKGxgy-56" value="" style="rounded=1;whiteSpace=wrap;html=1;" vertex="1" parent="1">
          <mxGeometry x="680" y="270" width="140" height="160" as="geometry" />
        </mxCell>
        <mxCell id="-0Fh-GqZwzhgzKdKGxgy-57" value="&lt;span style=&quot;font-size: 14px&quot;&gt;&lt;b&gt;运维友好&lt;/b&gt;&lt;/span&gt;" style="text;html=1;strokeColor=none;fillColor=none;align=center;verticalAlign=middle;whiteSpace=wrap;rounded=0;" vertex="1" parent="1">
          <mxGeometry x="689" y="280" width="60" height="20" as="geometry" />
        </mxCell>
        <mxCell id="-0Fh-GqZwzhgzKdKGxgy-58" value="白屏化" style="rounded=1;whiteSpace=wrap;html=1;" vertex="1" parent="1">
          <mxGeometry x="689" y="350" width="60" height="30" as="geometry" />
        </mxCell>
        <mxCell id="-0Fh-GqZwzhgzKdKGxgy-59" value="版本控制" style="rounded=1;whiteSpace=wrap;html=1;" vertex="1" parent="1">
          <mxGeometry x="753" y="350" width="60" height="30" as="geometry" />
        </mxCell>
        <mxCell id="-0Fh-GqZwzhgzKdKGxgy-60" value="高性能&lt;br&gt;高可用" style="rounded=1;whiteSpace=wrap;html=1;" vertex="1" parent="1">
          <mxGeometry x="689" y="310" width="60" height="30" as="geometry" />
        </mxCell>
        <mxCell id="-0Fh-GqZwzhgzKdKGxgy-61" value="可扩展&lt;br&gt;可观测" style="rounded=1;whiteSpace=wrap;html=1;" vertex="1" parent="1">
          <mxGeometry x="753" y="310" width="60" height="30" as="geometry" />
        </mxCell>
        <mxCell id="-0Fh-GqZwzhgzKdKGxgy-62" value="故障注入" style="rounded=1;whiteSpace=wrap;html=1;" vertex="1" parent="1">
          <mxGeometry x="689" y="390" width="60" height="30" as="geometry" />
        </mxCell>
        <mxCell id="-0Fh-GqZwzhgzKdKGxgy-63" value="服务发现" style="rounded=1;whiteSpace=wrap;html=1;" vertex="1" parent="1">
          <mxGeometry x="753" y="390" width="60" height="30" as="geometry" />
        </mxCell>
        <mxCell id="-0Fh-GqZwzhgzKdKGxgy-64" value="" style="endArrow=classic;html=1;exitX=0.5;exitY=1;exitDx=0;exitDy=0;" edge="1" parent="1" source="-0Fh-GqZwzhgzKdKGxgy-1">
          <mxGeometry width="50" height="50" relative="1" as="geometry">
            <mxPoint x="149.5" y="360" as="sourcePoint" />
            <mxPoint x="149.5" y="430" as="targetPoint" />
          </mxGeometry>
        </mxCell>
        <mxCell id="-0Fh-GqZwzhgzKdKGxgy-65" value="" style="curved=1;endArrow=classic;html=1;exitX=0.5;exitY=1;exitDx=0;exitDy=0;entryX=0.5;entryY=0;entryDx=0;entryDy=0;" edge="1" parent="1" source="-0Fh-GqZwzhgzKdKGxgy-2" target="-0Fh-GqZwzhgzKdKGxgy-3">
          <mxGeometry width="50" height="50" relative="1" as="geometry">
            <mxPoint x="130" y="580" as="sourcePoint" />
            <mxPoint x="180" y="530" as="targetPoint" />
            <Array as="points">
              <mxPoint x="150" y="560" />
              <mxPoint x="50" y="600" />
            </Array>
          </mxGeometry>
        </mxCell>
        <mxCell id="-0Fh-GqZwzhgzKdKGxgy-66" value="" style="curved=1;endArrow=classic;html=1;exitX=0.5;exitY=1;exitDx=0;exitDy=0;entryX=0.5;entryY=0;entryDx=0;entryDy=0;" edge="1" parent="1" target="-0Fh-GqZwzhgzKdKGxgy-5">
          <mxGeometry width="50" height="50" relative="1" as="geometry">
            <mxPoint x="150" y="490" as="sourcePoint" />
            <mxPoint x="50" y="650" as="targetPoint" />
            <Array as="points">
              <mxPoint x="150" y="560" />
              <mxPoint x="250" y="600" />
            </Array>
          </mxGeometry>
        </mxCell>
        <mxCell id="-0Fh-GqZwzhgzKdKGxgy-71" value="" style="endArrow=classic;html=1;" edge="1" parent="1" target="-0Fh-GqZwzhgzKdKGxgy-4">
          <mxGeometry width="50" height="50" relative="1" as="geometry">
            <mxPoint x="150" y="490" as="sourcePoint" />
            <mxPoint x="440" y="510" as="targetPoint" />
          </mxGeometry>
        </mxCell>
      </root>
    </mxGraphModel>
  </diagram>
</mxfile>
